<svg class="svg-icon" style="width: 1em;height: 1em;vertical-align: middle;fill: currentColor;overflow: hidden;" viewBox="0 0 1024 1024" version="1.1" xmlns="http://www.w3.org/2000/svg"><path d="M70 180m40.1 0l715.8 0q40.1 0 40.1 40.1l0 487.8q0 40.1-40.1 40.1l-715.8 0q-40.1 0-40.1-40.1l0-487.8q0-40.1 40.1-40.1Z" fill="#495057" /><path d="M128.38 239.98h679.26v448.04H128.38z" fill="#F8F9FA" /><path d="M128.38 239.98h677.48v40.46H128.38z" fill="#CED4DA" /><path d="M148.98 260.2a9.42 9.4 0 1 0 18.84 0 9.42 9.4 0 1 0-18.84 0Z" fill="#FC7070" /><path d="M179.14 260.2a9.42 9.4 0 1 0 18.84 0 9.42 9.4 0 1 0-18.84 0Z" fill="#F7BE1C" /><path d="M209.28 260.2a9.42 9.4 0 1 0 18.84 0 9.42 9.4 0 1 0-18.84 0Z" fill="#82C91E" /><path d="M197.36 333.52m7.06 0l527.16 0q7.06 0 7.06 7.06l0 28.22q0 7.06-7.06 7.06l-527.16 0q-7.06 0-7.06-7.06l0-28.22q0-7.06 7.06-7.06Z" fill="#DEE2E6" /><path d="M199.12 425.2m7.94 0l122.1 0q7.94 0 7.94 7.94l0 164.04q0 7.94-7.94 7.94l-122.1 0q-7.94 0-7.94-7.94l0-164.04q0-7.94 7.94-7.94Z" fill="#DEE2E6" /><path d="M399.9 425.2m7.94 0l122.1 0q7.94 0 7.94 7.94l0 164.04q0 7.94-7.94 7.94l-122.1 0q-7.94 0-7.94-7.94l0-164.04q0-7.94 7.94-7.94Z" fill="#DEE2E6" /><path d="M600.66 425.2m7.94 0l122.1 0q7.94 0 7.94 7.94l0 164.04q0 7.94-7.94 7.94l-122.1 0q-7.94 0-7.94-7.94l0-164.04q0-7.94 7.94-7.94Z" fill="#DEE2E6" /><path d="M697.16 414.1h61.66v76.78h-61.66z" fill="#868E96" /><path d="M671.44 392m12.56 0l88 0q12.56 0 12.56 12.56l0 17.54q0 12.56-12.56 12.56l-88 0q-12.56 0-12.56-12.56l0-17.54q0-12.56 12.56-12.56Z" fill="#495057" /><path d="M682.12 403.6m3.46 0l0 0q3.46 0 3.46 3.46l0 12.54q0 3.46-3.46 3.46l0 0q-3.46 0-3.46-3.46l0-12.54q0-3.46 3.46-3.46Z" fill="#868E96" /><path d="M699.1 403.6m3.46 0l0 0q3.46 0 3.46 3.46l0 12.54q0 3.46-3.46 3.46l0 0q-3.46 0-3.46-3.46l0-12.54q0-3.46 3.46-3.46Z" fill="#868E96" /><path d="M716.06 403.6m3.46 0l0 0q3.46 0 3.46 3.46l0 12.54q0 3.46-3.46 3.46l0 0q-3.46 0-3.46-3.46l0-12.54q0-3.46 3.46-3.46Z" fill="#868E96" /><path d="M733.02 403.6m3.46 0l0 0q3.46 0 3.46 3.46l0 12.54q0 3.46-3.46 3.46l0 0q-3.46 0-3.46-3.46l0-12.54q0-3.46 3.46-3.46Z" fill="#868E96" /><path d="M750 403.6m3.46 0l0 0q3.46 0 3.46 3.46l0 12.54q0 3.46-3.46 3.46l0 0q-3.46 0-3.46-3.46l0-12.54q0-3.46 3.46-3.46Z" fill="#868E96" /><path d="M766.96 403.6m3.46 0l0 0q3.46 0 3.46 3.46l0 12.54q0 3.46-3.46 3.46l0 0q-3.46 0-3.46-3.46l0-12.54q0-3.46 3.46-3.46Z" fill="#868E96" /><path d="M865.68 540.92l-15.3-15.3 35.7-35.66 15.3 15.3-35.7 35.66z" fill="#868E96" /><path d="M897.46 513.9l-20-20a13.38 13.38 0 0 1 0-18.94l3.26-3.26a13.42 13.42 0 0 1 18.96 0l20 20a13.38 13.38 0 0 1 0 18.94l-3.26 3.26a13.42 13.42 0 0 1-18.96 0z" fill="#495057" /><path d="M590.32 540.92l15.3-15.3-35.7-35.66-15.3 15.3 35.7 35.66z" fill="#868E96" /><path d="M558.54 513.9l20-20a13.38 13.38 0 0 0 0-18.94l-3.26-3.26a13.42 13.42 0 0 0-18.96 0l-20 20a13.38 13.38 0 0 0 0 18.94l3.26 3.26a13.42 13.42 0 0 0 18.96 0z" fill="#495057" /><path d="M498 686.26a230 229.74 0 1 0 460 0 230 229.74 0 1 0-460 0Z" fill="#495057" /><path d="M543.78 686.26a184.22 184.02 0 1 0 368.44 0 184.22 184.02 0 1 0-368.44 0Z" fill="#FFFFFF" /><path d="M728 684.8v-105.32a2.52 2.52 0 0 1 2.56-2.52A109.28 109.28 0 0 1 824 738.64a2.52 2.52 0 0 1-3.46 0.94l-91.34-52.6a2.52 2.52 0 0 1-1.2-2.18z" fill="#fa7809" /><path d="M728 545.84a5.02 5.02 0 0 1-5.02-5.02v-16.6a5.02 5.02 0 0 1 10 0v16.6a5.02 5.02 0 0 1-4.98 5.02zM655.22 565.34a5.02 5.02 0 0 1-4.36-2.52l-8.3-14.38a5.02 5.02 0 0 1 8.7-5.02l8.3 14.38a5.02 5.02 0 0 1-4.34 7.54zM602 618.56a5 5 0 0 1-2.5-0.68l-14.38-8.3a5.02 5.02 0 1 1 5.02-8.7l14.38 8.3a5.02 5.02 0 0 1-2.52 9.38zM582.42 691.28h-16.62a5.02 5.02 0 1 1 0-10h16.62a5.02 5.02 0 1 1 0 10zM587.54 772.28a5.02 5.02 0 0 1-2.52-9.38l14.38-8.3a5.02 5.02 0 1 1 5.02 8.7l-14.42 8.32a5 5 0 0 1-2.46 0.66zM646.9 831.6a5.02 5.02 0 0 1-4.34-7.54l8.3-14.38a5.02 5.02 0 0 1 8.7 5.02l-8.3 14.38a5.02 5.02 0 0 1-4.36 2.52zM728 853.3a5.02 5.02 0 0 1-5.02-5.02v-16.6a5.02 5.02 0 0 1 10 0v16.6a5.02 5.02 0 0 1-4.98 5.02zM809.1 831.6a5.02 5.02 0 0 1-4.36-2.52l-8.3-14.38a5.02 5.02 0 0 1 8.7-5.02l8.3 14.38a5.02 5.02 0 0 1-4.34 7.54zM868.46 772.28a5 5 0 0 1-2.5-0.68l-14.38-8.3a5.02 5.02 0 1 1 5.02-8.7l14.38 8.3a5.02 5.02 0 0 1-2.52 9.38zM890.2 691.28h-16.62a5.02 5.02 0 1 1 0-10h16.62a5.02 5.02 0 1 1 0 10zM854 618.56a5.02 5.02 0 0 1-2.52-9.38l14.38-8.3a5.02 5.02 0 1 1 5.02 8.7l-14.38 8.3a5 5 0 0 1-2.5 0.68zM800.78 565.34a5.02 5.02 0 0 1-4.34-7.54l8.3-14.38a5.02 5.02 0 0 1 8.7 5.02l-8.3 14.38a5.02 5.02 0 0 1-4.36 2.52z" fill="#FF6B6B" /><path d="M829.62 753.6a8.78 8.78 0 0 1-4.4-1.18l-136.46-78.7a8.8 8.8 0 1 1 8.8-15.22L834 737.2a8.78 8.78 0 0 1-4.4 16.4z" fill="#495057" /><path d="M700.98 686.26a27.02 26.98 0 1 0 54.04 0 27.02 26.98 0 1 0-54.04 0Z" fill="#FF6B6B" /></svg>