<svg class="svg-icon" style="width: 1em; height: 1em;vertical-align: middle;fill: currentColor;overflow: hidden;" viewBox="0 0 1024 1024" version="1.1" xmlns="http://www.w3.org/2000/svg"><path d="M512 512m-414 0a414 414 0 1 0 828 0 414 414 0 1 0-828 0Z" fill="#fff" /><path d="M946.8 838.4H77.2c-36.2 0-65.4-29.2-65.4-65.4v-634c0-36.2 29.2-65.4 65.4-65.4h869.8c36.2 0 65.4 29.2 65.4 65.4v634c-0.2 36.2-29.4 65.4-65.6 65.4z" fill="#FFFFFF" /><path d="M918 838.4h-45.4V210.2h139.8V744c-0.2 52.2-42.4 94.4-94.4 94.4zM946.8 73.6H77.2c-36.2 0-65.4 29.2-65.4 65.4v71.2h1000.6V139c-0.2-36.2-29.4-65.4-65.6-65.4z" fill="#fff" /><path d="M1012.2 210.2h-139.8V73.6H950c34.4 0 62.2 27.8 62.2 62.2v74.4z" fill="#fff" /><path d="M72.956412 166.770674a25 25 0 1 0 11.490597-48.661753 25 25 0 1 0-11.490597 48.661753Z" fill="#7BABF1" /><path d="M152.76606 166.778866a25 25 0 1 0 11.490597-48.661753 25 25 0 1 0-11.490597 48.661753Z" fill="#FFFFFF" /><path d="M220.660454 160.083854a25 25 0 1 0 35.354722-35.355956 25 25 0 1 0-35.354722 35.355956Z" fill="#fa7809" /><path d="M946.8 850.2H77.2C34.6 850.2 0 815.6 0 773v-634c0-42.6 34.6-77.2 77.2-77.2h869.8c42.6 0 77.2 34.6 77.2 77.2v634c-0.2 42.6-34.8 77.2-77.4 77.2zM77.2 85.4c-29.6 0-53.6 24-53.6 53.6v634c0 29.6 24 53.6 53.6 53.6h869.8c29.6 0 53.6-24 53.6-53.6v-634c0-29.6-24-53.6-53.6-53.6H77.2z" fill="#495057" /><path d="M1012.2 222H11.8c-6.4 0-11.8-5.2-11.8-11.8s5.2-11.8 11.8-11.8h1000.6c6.4 0 11.8 5.2 11.8 11.8s-5.4 11.8-12 11.8zM78.8 179.2C58.6 179.2 42 162.8 42 142.4c0-20.2 16.4-36.8 36.8-36.8 20.2 0 36.8 16.4 36.8 36.8-0.2 20.4-16.6 36.8-36.8 36.8z m0-50c-7.4 0-13.2 6-13.2 13.2s6 13.2 13.2 13.2c7.4 0 13.2-6 13.2-13.2s-6-13.2-13.2-13.2zM158.6 179.2c-20.2 0-36.8-16.4-36.8-36.8 0-20.2 16.4-36.8 36.8-36.8 20.2 0 36.8 16.4 36.8 36.8-0.2 20.4-16.6 36.8-36.8 36.8z m0-50c-7.4 0-13.2 6-13.2 13.2s6 13.2 13.2 13.2c7.4 0 13.2-6 13.2-13.2s-6-13.2-13.2-13.2zM238.4 179.2c-20.2 0-36.8-16.4-36.8-36.8 0-20.2 16.4-36.8 36.8-36.8 20.2 0 36.8 16.4 36.8 36.8-0.2 20.4-16.6 36.8-36.8 36.8z m0-50c-7.4 0-13.2 6-13.2 13.2s6 13.2 13.2 13.2c7.4 0 13.2-6 13.2-13.2s-6-13.2-13.2-13.2z" fill="#495057" /><path d="M512 523.2m-209.8 0a209.8 209.8 0 1 0 419.6 0 209.8 209.8 0 1 0-419.6 0Z" fill="#fff" /><path d="M681.4 501.8c0-72-36.4-135.6-91.6-173.4-24-9.6-50.4-15-77.8-15-115.8 0-209.8 94-209.8 209.8 0 72 36.4 135.6 91.6 173.4 24 9.6 50.4 15 77.8 15 116-0.2 209.8-94 209.8-209.8z" fill="#fff" /><path d="M512 744.8c-65.4 0-116.6-97.2-116.6-221.6s51.2-221.6 116.6-221.6c65.4 0 116.6 97.2 116.6 221.6S577.4 744.8 512 744.8z m0-419.6c-50.6 0-93.2 90.8-93.2 198s42.6 198 93.2 198 93.2-90.8 93.2-198-42.6-198-93.2-198z" fill="#495057" /><path d="M512 744.8c-63 0-123-27-165-73.8-2.4-2.6-3.4-6.2-2.8-9.8 0.6-3.6 2.8-6.6 5.8-8.4 41.4-23.2 100.6-36.4 162-36.4s120.6 13.2 162 36.4c3.2 1.8 5.2 4.8 5.8 8.4 0.6 3.6-0.4 7.2-2.8 9.8-42 46.8-102 73.8-165 73.8z m-136.8-78.4c36.8 35 85.8 55 136.8 55s100.2-19.8 136.8-55c-37-17-85.8-26.6-136.8-26.6-51 0-100 9.6-136.8 26.6zM512 430c-61.6 0-120.6-13.2-162-36.4-3.2-1.8-5.2-4.8-5.8-8.4-0.6-3.6 0.4-7 2.8-9.8 42-47 102.2-73.8 165-73.8 63 0 123 27 165 73.8 2.4 2.6 3.4 6.2 2.8 9.8-0.6 3.6-2.8 6.6-5.8 8.4-41.4 23.2-100.4 36.4-162 36.4z m-136.8-50c37 17 85.8 26.6 136.8 26.6 51 0 100-9.6 136.8-26.6-36.8-35-85.8-55-136.8-55-51 0.2-100.2 20-136.8 55z" fill="#495057" /><path d="M512 744.8c-122.2 0-221.6-99.4-221.6-221.6S389.8 301.8 512 301.8c122.2 0 221.6 99.4 221.6 221.6S634.2 744.8 512 744.8z m0-419.6c-109.2 0-198 88.8-198 198s88.8 198 198 198 198-88.8 198-198-88.8-198-198-198z" fill="#495057" /><path d="M720 535H302.2c-6.4 0-11.8-5.2-11.8-11.8 0-6.4 5.2-11.8 11.8-11.8H720c6.4 0 11.8 5.2 11.8 11.8 0 6.4-5.2 11.8-11.8 11.8z" fill="#495057" /><path d="M916.4 693.4L702.8 682l11.4 213.6 60.8-60.8 115.6 115.6 80.6-80.6-115.6-115.6z" fill="#fa7809" /><path d="M928.6 827.4l-79.4 81.6 41.4 41.4 80.6-80.6z" fill="#fa7809" /><path d="M890.6 962.2c-3.2 0-6-1.2-8.2-3.4l-107.2-107.2-52.8 52.4c-3.2 3.2-8.2 4.4-12.4 2.6-4.4-1.6-7.2-5.6-7.6-10.4l-11.4-213.6c-0.2-3.4 1-6.6 3.4-9a11.6 11.6 0 0 1 9-3.4l213.6 11.4c4.6 0.2 8.6 3.2 10.4 7.6 1.6 4.4 0.6 9.2-2.6 12.4l-52.6 52.6 107.2 107.2c4.6 4.6 4.6 12 0 16.6l-80.6 80.6a11.08 11.08 0 0 1-8.2 3.6z m-115.6-139c3.2 0 6 1.2 8.2 3.4l107.2 107.2 64-64-107.2-107.2c-4.6-4.6-4.6-12 0-16.6l42.2-42.2-174.4-9.4 9.4 174.4 42.2-42.2c2.4-2.2 5.4-3.4 8.4-3.4z" fill="#495057" /></svg>