<svg class="svg-icon" style="width: 1em; height: 1em;vertical-align: middle;fill: currentColor;overflow: hidden;" viewBox="0 0 1024 1024" version="1.1" xmlns="http://www.w3.org/2000/svg"><path d="M213.6 276.9c25.9 0 47-21.2 47-47.1V214h-94v15.9c0 25.8 21.1 47 47 47z" fill="#fff" /><path d="M711.3 681V291.4h-0.1v-84.2c0-3-0.1-6.1-0.3-9.1v-66.7c0-35.9-26-65.2-58.8-67.4-3.7-0.6-7.5-0.9-11.4-0.9H109.9c-25.9 0-47 22.6-47 50.6v735.1c0 27.9 21 50.6 47 50.6h555.4c25.9 0 46.9-22.6 46.9-50.6V681h-0.9z m-303-506.6h75.3v13.7h-59.3v30.5H480v13.7h-55.8v33.3H486v13.7h-77.8V174.4z m-107.1 0h16.1l53.6 78h0.6v-78h16v104.8H372l-54.2-78.8h-0.6v78.8h-16V174.4zM152 210.2c0-6 4.9-10.9 10.9-10.9h12.8c0.3-1.5 0.9-2.9 1.7-4.2 2.4-4 0.4-7 0.2-7.4-2.3-3.3-1.5-7.9 1.8-10.2 3.2-2.3 7.8-1.6 10.1 1.6 2.6 3.6 5.6 11.5 2.2 20.1h9.9c0.2-3.2 1.4-6.4 3.4-9.4 4.8-7.4 0.9-11.8 0.5-12.2-1.4-1.3-2.2-3.2-2.2-5.1 0-2 0.7-3.8 2.1-5.2 1.4-1.4 3.2-2.2 5.1-2.2h0.1c1.9 0 3.7 0.7 5.1 2.1 4.5 4.5 10.7 16.6 1.5 30.7-0.3 0.5-0.6 1-0.7 1.4h11.2c-0.2-4 0.8-9.1 4.9-14.6 6.1-8.3 2.9-15.2 0.4-17.8-2.9-2.8-2.9-7.5-0.1-10.4 2.8-2.9 7.5-2.9 10.4-0.1 5.7 5.6 13.2 20.5 1.1 36.9-1.6 2.1-2.2 4.1-2 5.8h22.1c6 0 10.9 4.9 10.9 10.9v19.6c0 18.8-8.4 36.3-23.1 48.1l-1.2 1c-10.7 8.1-23.9 12.6-37.4 12.6s-26.8-4.5-37.5-12.6l-1.2-1c-14.7-11.8-23.1-29.2-23.1-48.1v-19.4z m140.7 438.4l-28.7 28 6.8 39.5c0.4 2.5-0.6 5.1-2.7 6.6-1.2 0.9-2.6 1.3-4 1.3-1.1 0-2.1-0.2-3.1-0.8l-35.4-18.6-35.4 18.6c-2.3 1.2-5 1-7.1-0.5-2.1-1.5-3.1-4-2.7-6.6l6.8-39.5-28.7-27.9c-1.8-1.8-2.5-4.5-1.7-6.9 0.8-2.4 2.9-4.2 5.4-4.6l19.4-2.8c3.7-0.5 7.1 2 7.6 5.7s-2 7.1-5.7 7.6l-5.9 0.8 21.4 20.9c1.6 1.6 2.3 3.8 1.9 6l-5.1 29.5 26.5-13.9c1.9-1 4.3-1 6.2 0l26.5 13.9-5.1-29.5c-0.4-2.2 0.4-4.4 1.9-6l21.4-20.9-29.6-4.3c-2.2-0.3-4.1-1.7-5.1-3.7l-13.3-26.9-13.3 26.9c-1.6 3.3-5.7 4.7-9 3-3.3-1.6-4.7-5.7-3-9l19.3-39.1c1.1-2.3 3.5-3.8 6-3.8 2.6 0 4.9 1.5 6 3.8l17.7 35.9 39.6 5.7c2.5 0.4 4.6 2.1 5.4 4.6 1.3 2.6 0.7 5.2-1.2 7z m0-201.3l-28.7 28 6.8 39.5c0.4 2.5-0.6 5.1-2.7 6.6-1.2 0.9-2.6 1.3-4 1.3-1.1 0-2.1-0.2-3.1-0.8l-35.4-18.6-35.4 18.6c-2.3 1.2-5 1-7.1-0.5-2.1-1.5-3.1-4-2.7-6.6l6.8-39.5-28.7-27.9c-1.8-1.8-2.5-4.5-1.7-6.9 0.8-2.4 2.9-4.2 5.4-4.6l19.4-2.8c3.7-0.5 7.1 2 7.6 5.7s-2 7.1-5.7 7.6l-5.9 0.9 21.4 20.9c1.6 1.6 2.3 3.8 1.9 6l-5.1 29.5 26.5-13.9c1.9-1 4.3-1 6.2 0l26.5 13.9-5.1-29.5c-0.4-2.2 0.4-4.4 1.9-6l21.4-20.9-29.6-4.3c-2.2-0.3-4.1-1.7-5.1-3.7l-13.3-26.9-13.3 26.9c-1.6 3.3-5.7 4.7-9 3-3.3-1.6-4.7-5.7-3-9l19.3-39.1c1.1-2.3 3.5-3.8 6-3.8 2.6 0 4.9 1.5 6 3.8l17.7 35.9 39.6 5.7c2.5 0.4 4.6 2.1 5.4 4.6 1.3 2.5 0.7 5.2-1.2 6.9z m153.2 250.4H321.4c-2.8 0-5.1-3.3-5.1-7.4 0-4.1 2.3-7.4 5.1-7.4h124.5c2.8 0 5.1 3.3 5.1 7.4 0 4-2.2 7.4-5.1 7.4z m0-64.8H321.4c-2.8 0-5.1-3.3-5.1-7.4 0-4.1 2.3-7.4 5.1-7.4h124.5c2.8 0 5.1 3.3 5.1 7.4 0 4.1-2.2 7.4-5.1 7.4z m0-136.5H321.4c-2.8 0-5.1-3.3-5.1-7.4 0-4.1 2.3-7.4 5.1-7.4h124.5c2.8 0 5.1 3.3 5.1 7.4 0 4.1-2.2 7.4-5.1 7.4z m140.5-64.8H327c-5.9 0-10.6-3.3-10.6-7.4 0-4.1 4.7-7.4 10.6-7.4h259.4c5.8 0 10.6 3.3 10.6 7.4 0 4.1-4.7 7.4-10.6 7.4z m13.9-152.4h-17L562 198.3h-0.6l-21.3 80.9h-17.2l-30.1-104.8h18.1l20.4 81.6h0.6l21.4-81.6H570l21.4 81.6h0.6l20.4-81.6h18.1l-30.2 104.8z" fill="#fff" /><path d="M634.5 570.9c0-48.5-39.4-87.8-87.8-87.8-48.5 0-87.8 39.4-87.8 87.8 0 23.6 9.3 45 24.6 60.8-4.2 17.2-6.3 35.3-6.3 53.9 0 83.6 44 156.7 110 197.7l17.6-72.1c-35.9-30.1-58.6-75.3-58.6-125.6 0-9.1 0.8-18.2 2.2-26.9 47.5-0.9 86.1-39.7 86.1-87.8z m75.3-49.2c30.3 0 58.8 8.3 83.2 22.6-3.8 9.9-5.9 20.6-5.9 31.7 0 48.5 39.4 87.8 87.8 87.8 48.3 0 87.8-39.4 87.8-87.8 0-48.3-39.2-87.6-87.8-87.6-11.3 0-22.2 2.2-32.3 6.1-37.6-26.2-83.4-41.6-132.9-41.6-33.5 0-65.4 7.1-94.1 19.8l40.2 58.2c16.9-6 35.2-9.2 54-9.2z m163.6 171.4c-2.6 59.8-37.2 111.1-87.2 137.5-14.5-28.5-44.2-47.9-78.3-47.9-48.5 0-87.8 39.4-87.8 87.8s39.4 87.8 87.8 87.8c36.5 0 67.6-22.2 81-53.7 89.6-32.5 153.5-118.3 153.5-218.9 0-5.2-0.2-10.3-0.6-15.5l-68.4 22.9z m0 0" fill="#fa7809" /></svg>