<svg class="svg-icon" style="width: 1em;height: 1em;vertical-align: middle;fill: #fff;overflow: hidden;" viewBox="0 0 1024 1024" version="1.1" xmlns="http://www.w3.org/2000/svg"><path d="M1005.056 510.976c-12.288-72.704-113.152-124.928-243.2-124.928-20.992 0-40.96 1.536-59.904 3.584V194.56c0-58.88-48.128-107.008-107.008-107.008H129.536C70.656 87.552 22.528 135.68 22.528 194.56v615.936c0 58.88 48.128 107.008 107.008 107.008h322.048c15.36 0 28.672-13.312 28.672-28.672 0-15.36-13.312-28.672-28.672-28.672H129.536c-27.136 0-49.664-22.528-49.664-49.664V194.56c0-27.136 22.528-49.664 49.664-49.664h464.896c27.136 0 49.664 22.528 49.664 49.664v206.848c-74.24 21.504-122.368 61.952-130.56 109.568h-1.536v299.008c0 78.336 109.568 139.264 249.856 139.264 136.704 0 240.128-57.344 244.736-134.144h0.512V510.976h-2.048z m-435.712 299.008v-60.928c47.104 31.744 116.736 49.664 192 49.664 74.24 0 140.288-17.408 186.88-49.664v60.928c0 10.24-5.12 20.992-15.36 31.232-24.064 24.576-81.92 50.688-171.52 50.688-53.248 0-102.912-9.728-139.776-27.648-32.768-15.36-52.224-35.84-52.224-54.272z m192-203.264c-110.592 0-189.952-41.984-192-79.872v-3.072c2.56-37.888 81.92-80.384 192-80.384s185.344 41.472 186.88 80.384v2.56c-1.536 38.912-76.8 80.384-186.88 80.384z m0.512 135.168c-110.592 0-189.952-42.496-192-80.384v-46.592c47.104 31.744 116.736 49.664 192 49.664 74.24 0 140.288-17.408 186.88-49.664v46.08c-1.536 39.424-76.8 80.896-186.88 80.896z"  /><path d="M170.496 317.44h395.264c15.36 0 28.672-13.312 28.672-28.672s-13.312-28.672-28.672-28.672H170.496c-15.36 0-28.672 13.312-28.672 28.672s13.312 28.672 28.672 28.672zM451.584 457.728H170.496c-15.36 0-28.672 13.312-28.672 28.672 0 15.36 13.312 28.672 28.672 28.672h281.088c15.36 0 28.672-13.312 28.672-28.672 0-15.36-13.312-28.672-28.672-28.672zM170.496 666.624c-15.36 0-28.672 13.312-28.672 28.672 0 15.36 13.312 28.672 28.672 28.672h281.088c15.36 0 28.672-13.312 28.672-28.672 0-15.872-12.8-28.672-28.672-28.672H170.496z" fill="#fa7809" /></svg>